<svg width="44" height="44" viewBox="0 0 44 44" fill="none" xmlns="http://www.w3.org/2000/svg">
<path d="M31.625 31.625H11.9969L7.20156 5.25938C7.14546 4.94363 6.98075 4.65743 6.73594 4.45028C6.49113 4.24313 6.18161 4.12807 5.86094 4.125H2.75" stroke="#D0B7A0" stroke-width="2" stroke-linecap="round" stroke-linejoin="round"/>
<path d="M13.75 38.5C15.6485 38.5 17.1875 36.961 17.1875 35.0625C17.1875 33.164 15.6485 31.625 13.75 31.625C11.8515 31.625 10.3125 33.164 10.3125 35.0625C10.3125 36.961 11.8515 38.5 13.75 38.5Z" stroke="#D0B7A0" stroke-width="2" stroke-linecap="round" stroke-linejoin="round"/>
<path d="M31.625 38.5C33.5235 38.5 35.0625 36.961 35.0625 35.0625C35.0625 33.164 33.5235 31.625 31.625 31.625C29.7265 31.625 28.1875 33.164 28.1875 35.0625C28.1875 36.961 29.7265 38.5 31.625 38.5Z" stroke="#D0B7A0" stroke-width="2" stroke-linecap="round" stroke-linejoin="round"/>
<path d="M10.7422 24.75H32.3297C32.9724 24.752 33.5953 24.5273 34.0888 24.1155C34.5824 23.7037 34.9149 23.1311 35.0281 22.4984L37.125 11H8.25" stroke="#D0B7A0" stroke-width="2" stroke-linecap="round" stroke-linejoin="round"/>
</svg>
