<svg width="23" height="23" viewBox="0 0 23 23" fill="none" xmlns="http://www.w3.org/2000/svg">
<path d="M16.5312 16.5312H6.27109L3.76445 2.74922C3.73513 2.58417 3.64903 2.43456 3.52106 2.32628C3.39309 2.218 3.2313 2.15786 3.06367 2.15625H1.4375" stroke="white" stroke-width="2" stroke-linecap="round" stroke-linejoin="round"/>
<path d="M7.1875 20.125C8.17989 20.125 8.98438 19.3205 8.98438 18.3281C8.98438 17.3357 8.17989 16.5312 7.1875 16.5312C6.19511 16.5312 5.39062 17.3357 5.39062 18.3281C5.39062 19.3205 6.19511 20.125 7.1875 20.125Z" stroke="white" stroke-width="2" stroke-linecap="round" stroke-linejoin="round"/>
<path d="M16.5312 20.125C17.5236 20.125 18.3281 19.3205 18.3281 18.3281C18.3281 17.3357 17.5236 16.5312 16.5312 16.5312C15.5389 16.5312 14.7344 17.3357 14.7344 18.3281C14.7344 19.3205 15.5389 20.125 16.5312 20.125Z" stroke="white" stroke-width="2" stroke-linecap="round" stroke-linejoin="round"/>
<path d="M5.61523 12.9375H16.8996C17.2356 12.9385 17.5612 12.8211 17.8192 12.6058C18.0771 12.3906 18.251 12.0913 18.3102 11.7605L19.4062 5.75H4.3125" stroke="white" stroke-width="2" stroke-linecap="round" stroke-linejoin="round"/>
</svg>
