<svg width="23" height="20" viewBox="0 0 23 20" fill="none" xmlns="http://www.w3.org/2000/svg">
<path d="M5.03125 18.125H17.9688" stroke="white" stroke-width="2" stroke-linecap="round" stroke-linejoin="round"/>
<path d="M11.5 10.625C13.0878 10.625 14.375 9.50571 14.375 8.125C14.375 6.74429 13.0878 5.625 11.5 5.625C9.91218 5.625 8.625 6.74429 8.625 8.125C8.625 9.50571 9.91218 10.625 11.5 10.625Z" stroke="white" stroke-width="2" stroke-linecap="round" stroke-linejoin="round"/>
<path d="M18.6875 8.125C18.6875 13.75 11.5 18.125 11.5 18.125C11.5 18.125 4.3125 13.75 4.3125 8.125C4.3125 6.4674 5.06975 4.87769 6.41767 3.70558C7.76559 2.53348 9.59376 1.875 11.5 1.875C13.4062 1.875 15.2344 2.53348 16.5823 3.70558C17.9302 4.87769 18.6875 6.4674 18.6875 8.125V8.125Z" stroke="white" stroke-width="2" stroke-linecap="round" stroke-linejoin="round"/>
</svg>
