<svg width="35" height="28" viewBox="0 0 35 28" fill="none" xmlns="http://www.w3.org/2000/svg">
<path d="M15.7304 8.22764C15.7304 5.3527 17.9222 2.96127 20.5288 3.00048C21.4416 3.0121 22.3319 3.31426 23.0928 3.87064C23.8536 4.42701 24.4526 5.21392 24.8177 6.13677H29L25.1731 10.3577C24.9262 14.5977 23.2245 18.5748 20.4141 21.4804C17.6036 24.386 13.8954 26.0021 10.0434 26C6.25207 26 5.30424 24.4318 5.30424 24.4318C5.30424 24.4318 9.09556 22.8637 10.9912 19.7274C10.9912 19.7274 3.40858 15.5457 5.30424 4.04591C5.30424 4.04591 10.0434 9.27307 15.7304 10.3185V8.22764Z" stroke="#D0B7A0" stroke-width="2" stroke-linecap="round" stroke-linejoin="round"/>
</svg>
